<svg width="64" height="64" viewBox="0 0 64 64" role="img" xmlns="http://www.w3.org/2000/svg">
<title>Devoreur favicon</title>
<desc>Simplified Eater: a rounded hood with two ember eyes on a dark square.</desc>
<rect width="64" height="64" rx="14" fill="#0d0b16"/>
<rect x="0.5" y="0.5" width="63" height="63" rx="13.5" fill="none" stroke="#241a33" stroke-width="1"/>
<path d="M 32 11 C 48 11 55 24 55 39 C 55 48 52 53 50 59 L 45 54 L 39 60 L 32 55 L 25 60 L 19 54 L 14 59 C 12 53 9 48 9 39 C 9 24 16 11 32 11 Z" fill="#231d34"/>
<ellipse cx="32" cy="35" rx="16" ry="20" fill="#0b0912"/>
<circle cx="25" cy="33" r="5" fill="#ff4d1a"/>
<circle cx="25" cy="33" r="2" fill="#ffe08a"/>
<circle cx="39" cy="33" r="5" fill="#ff4d1a"/>
<circle cx="39" cy="33" r="2" fill="#ffe08a"/>
</svg>
