<svg width="520" height="120" viewBox="0 0 520 120" role="img" xmlns="http://www.w3.org/2000/svg">
<title>Devoreur horizontal logo</title>
<desc>The Eater icon beside the Devoreur wordmark, for headers and navigation bars.</desc>
<rect width="520" height="120" fill="none"/>
<g transform="translate(10,10)">
<circle cx="50" cy="50" r="50" fill="#0d0b16"/>
<circle cx="50" cy="50" r="50" fill="none" stroke="#241a33" stroke-width="1"/>
<path d="M 50 12 C 71 12 82 30 82 50 C 82 63 77 72 75 84 L 69 79 L 63 87 L 57 81 L 51 88 L 45 81 L 39 87 L 33 81 L 27 87 L 22 79 L 16 84 C 14 72 9 63 9 50 C 9 30 20 12 50 12 Z" fill="#221d33"/>
<ellipse cx="50" cy="43" rx="20" ry="24" fill="#0b0912"/>
<circle cx="42" cy="40" r="5.5" fill="#ff4d1a"/>
<circle cx="42" cy="40" r="2.4" fill="#ffe08a"/>
<circle cx="58" cy="40" r="5.5" fill="#ff4d1a"/>
<circle cx="58" cy="40" r="2.4" fill="#ffe08a"/>
</g>
<text x="130" y="72" font-family="Georgia, 'Times New Roman', serif" font-size="46" fill="#f2ead6" letter-spacing="5">DEVOREUR</text>
</svg>
