<svg width="1200" height="630" viewBox="0 0 1200 630" role="img" xmlns="http://www.w3.org/2000/svg">
<title>Devoreur social share image</title>
<desc>Open Graph card: the Eater on the left, the Devoreur name, tagline, hook, and URL on the right.</desc>
<rect width="1200" height="630" fill="#08080d"/>
<rect x="4" y="4" width="1192" height="622" fill="none" stroke="#1a1428" stroke-width="3"/>
<g transform="translate(110,135)">
<circle cx="180" cy="180" r="178" fill="#0d0b16"/>
<circle cx="180" cy="180" r="178" fill="none" stroke="#241a33" stroke-width="1.6"/>
<path d="M 180 36
 C 261 36 303 102 303 180
 C 303 228 285 261 279 300
 L 261 285 L 249 306 L 234 288 L 219 309 L 205 291 L 190 312 L 175 291 L 162 309 L 147 288 L 132 306 L 120 285 L 105 300
 C 96 261 78 228 78 180
 C 78 102 99 36 180 36 Z" fill="#15121f"/>
<path d="M 180 57
 C 252 57 294 123 294 180
 C 294 225 282 258 273 291
 L 180 273 L 87 291
 C 78 258 66 225 66 180
 C 66 123 108 57 180 57 Z" fill="#221d33"/>
<ellipse cx="180" cy="156" rx="69" ry="84" fill="#0b0912"/>
<circle cx="153" cy="147" r="14" fill="#ff4d1a"/>
<circle cx="153" cy="147" r="6.5" fill="#ffe08a"/>
<circle cx="207" cy="147" r="14" fill="#ff4d1a"/>
<circle cx="207" cy="147" r="6.5" fill="#ffe08a"/>
<circle cx="132" cy="78" r="3" fill="#8a6bff" opacity="0.55"/>
<circle cx="264" cy="105" r="2.4" fill="#8a6bff" opacity="0.5"/>
</g>
<text x="560" y="250" font-family="Georgia, 'Times New Roman', serif" font-size="96" fill="#f2ead6" letter-spacing="10">DEVOREUR</text>
<line x1="562" y1="290" x2="1090" y2="290" stroke="#3a3450" stroke-width="1.5"/>
<text x="562" y="342" font-family="Georgia, serif" font-style="italic" font-size="34" fill="#9a8d6f" letter-spacing="2">the maze that eats light</text>
<text x="562" y="410" font-family="system-ui, -apple-system, sans-serif" font-size="27" fill="#7a7086">Hunt the treasure. Evade the Eaters.</text>
<text x="562" y="448" font-family="system-ui, -apple-system, sans-serif" font-size="27" fill="#7a7086">Burn your rivals. Real stakes.</text>
<rect x="562" y="492" width="266" height="60" rx="8" fill="none" stroke="#c98f2e" stroke-width="2"/>
<text x="695" y="531" text-anchor="middle" font-family="system-ui, sans-serif" font-size="26" fill="#e8b04a" letter-spacing="3">devoreur.com</text>
</svg>
