<svg width="680" height="560" viewBox="0 0 680 560" role="img" xmlns="http://www.w3.org/2000/svg"><defs><linearGradient id="wm" x1="0" y1="0" x2="1" y2="0.18"><stop offset="0" stop-color="#b6ff3a"/><stop offset=".5" stop-color="#7fe7ff"/><stop offset="1" stop-color="#b06bff"/></linearGradient></defs>
<title>Devoreur title-screen lockup</title>
<desc>The Eater creature above the Devoreur wordmark and taglines, for the game start screen.</desc>
<rect width="680" height="560" fill="#0a0611"/>
<path d="M 340 70
 C 408 70 444 126 444 194
 C 444 234 430 262 423 296
 L 411 286 L 402 306 L 391 288 L 380 308 L 369 290 L 358 310 L 346 292 L 340 314
 L 334 292 L 322 310 L 311 290 L 300 308 L 289 288 L 278 306 L 269 286 L 257 296
 C 250 262 236 234 236 194
 C 236 126 272 70 340 70 Z" fill="#191030"/>
<path d="M 340 84
 C 402 84 432 134 432 194
 C 432 226 424 250 417 278
 L 340 264 L 263 278
 C 256 250 248 226 248 194
 C 248 134 278 84 340 84 Z" fill="#2a1a48"/>
<ellipse cx="340" cy="170" rx="58" ry="70" fill="#0a0611"/>
<circle cx="317" cy="162" r="11.5" fill="#b6ff3a"/>
<circle cx="317" cy="162" r="5.5" fill="#eefdcf"/>
<circle cx="363" cy="162" r="11.5" fill="#b6ff3a"/>
<circle cx="363" cy="162" r="5.5" fill="#eefdcf"/>
<path d="M 317 162 L 312 232" stroke="#b6ff3a" stroke-width="2" opacity="0.3" stroke-linecap="round"/>
<path d="M 363 162 L 368 232" stroke="#b6ff3a" stroke-width="2" opacity="0.3" stroke-linecap="round"/>
<circle cx="288" cy="110" r="2" fill="#b06bff" opacity="0.55"/>
<circle cx="395" cy="130" r="1.5" fill="#b06bff" opacity="0.5"/>
<circle cx="255" cy="185" r="1.5" fill="#b06bff" opacity="0.4"/>
<text x="340" y="430" text-anchor="middle" font-family="system-ui,-apple-system,sans-serif" font-weight="800" font-size="76" fill="url(#wm)" letter-spacing="13">DEVOREUR</text>
<line x1="230" y1="458" x2="450" y2="458" stroke="#2e2450" stroke-width="1"/>
<text x="340" y="492" text-anchor="middle" font-family="system-ui,-apple-system,sans-serif" font-size="17" fill="#b7aed0" letter-spacing="1">le labyrinthe qui dévore la lumière</text>
<text x="340" y="528" text-anchor="middle" font-family="system-ui,-apple-system,sans-serif" font-size="12.5" fill="#8079a0" letter-spacing="3">UNE CHASSE AU TRÉSOR DANS LE NOIR</text>
</svg>
