<svg width="680" height="560" viewBox="0 0 680 560" role="img" xmlns="http://www.w3.org/2000/svg">
<title>Devoreur title-screen lockup</title>
<desc>The Eater creature above the Devoreur wordmark and taglines, for the game start screen.</desc>
<rect width="680" height="560" fill="#08080d"/>
<path d="M 340 70
 C 408 70 444 126 444 194
 C 444 234 430 262 423 296
 L 411 286 L 402 306 L 391 288 L 380 308 L 369 290 L 358 310 L 346 292 L 340 314
 L 334 292 L 322 310 L 311 290 L 300 308 L 289 288 L 278 306 L 269 286 L 257 296
 C 250 262 236 234 236 194
 C 236 126 272 70 340 70 Z" fill="#15121f"/>
<path d="M 340 84
 C 402 84 432 134 432 194
 C 432 226 424 250 417 278
 L 340 264 L 263 278
 C 256 250 248 226 248 194
 C 248 134 278 84 340 84 Z" fill="#221d33"/>
<ellipse cx="340" cy="170" rx="58" ry="70" fill="#0b0912"/>
<circle cx="317" cy="162" r="11.5" fill="#ff4d1a"/>
<circle cx="317" cy="162" r="5.5" fill="#ffe08a"/>
<circle cx="363" cy="162" r="11.5" fill="#ff4d1a"/>
<circle cx="363" cy="162" r="5.5" fill="#ffe08a"/>
<path d="M 317 162 L 312 232" stroke="#ff4d1a" stroke-width="2" opacity="0.3" stroke-linecap="round"/>
<path d="M 363 162 L 368 232" stroke="#ff4d1a" stroke-width="2" opacity="0.3" stroke-linecap="round"/>
<circle cx="288" cy="110" r="2" fill="#8a6bff" opacity="0.55"/>
<circle cx="395" cy="130" r="1.5" fill="#8a6bff" opacity="0.5"/>
<circle cx="255" cy="185" r="1.5" fill="#8a6bff" opacity="0.4"/>
<text x="340" y="430" text-anchor="middle" font-family="Georgia, 'Times New Roman', serif" font-size="76" fill="#f2ead6" letter-spacing="13">DEVOREUR</text>
<line x1="230" y1="458" x2="450" y2="458" stroke="#3a3450" stroke-width="1"/>
<text x="340" y="492" text-anchor="middle" font-family="Georgia, serif" font-style="italic" font-size="19" fill="#8a7d5f" letter-spacing="3">the maze that eats light</text>
<text x="340" y="528" text-anchor="middle" font-family="Georgia, serif" font-size="13" fill="#5a5468" letter-spacing="6">TREASURE HUNT IN THE DARK</text>
</svg>
